<svg version="1.1" id="Layer_1" xmlns="http://www.w3.org/2000/svg" xmlns:xlink="http://www.w3.org/1999/xlink" x="0px" y="0px"
	 width="100%" viewBox="0 0 320 256" enable-background="new 0 0 320 256" xml:space="preserve">
<path fill="#000000" opacity="1.000000" stroke="none" 
	d="
M321.000000,80.666672 
	C292.698303,83.418861 264.557098,87.215820 234.884933,90.481071 
	C245.316360,101.806023 254.885086,112.194374 264.453827,122.582726 
	C264.093109,122.965446 263.732422,123.348167 263.371735,123.730888 
	C252.435745,114.281960 241.499756,104.833038 229.544769,94.503677 
	C212.234161,142.392349 195.276016,189.305923 178.317871,236.219498 
	C178.695496,236.391754 179.073120,236.564011 179.450745,236.736267 
	C195.443268,210.107437 211.435806,183.478592 227.428329,156.849747 
	C227.946426,157.143585 228.464523,157.437439 228.982620,157.731277 
	C216.817856,179.196075 204.653091,200.660858 192.488342,222.125656 
	C192.747467,222.301041 193.006607,222.476410 193.265747,222.651794 
	C234.239243,179.823776 275.212738,136.995743 316.186249,94.167725 
	C316.084137,97.594330 313.962128,99.445930 312.139069,101.488266 
	C276.973053,140.884277 241.777725,180.254166 206.632736,219.668915 
	C195.774933,231.845856 185.048111,244.139572 174.130661,256.689911 
	C172.611115,257.000000 171.222214,257.000000 169.416656,257.000000 
	C149.357132,221.900253 129.714249,186.800522 110.071381,151.700775 
	C110.595268,151.392838 111.119164,151.084885 111.643059,150.776947 
	C127.952850,178.029114 144.262634,205.281296 160.572433,232.533478 
	C160.786697,232.447449 161.000961,232.361435 161.215225,232.275406 
	C147.784180,191.377777 134.353134,150.480133 120.922089,109.582497 
	C121.389374,109.415565 121.856659,109.248634 122.323944,109.081703 
	C138.870651,153.683655 155.417374,198.285614 171.964081,242.887573 
	C172.574448,242.938538 173.184830,242.989517 173.795197,243.040497 
	C187.394836,194.798019 200.994476,146.555542 214.594116,98.313057 
	C214.271622,98.046341 213.949142,97.779617 213.626648,97.512901 
	C202.149414,104.866058 190.672195,112.219215 179.194962,119.572372 
	C178.874924,119.155388 178.554871,118.738403 178.234818,118.321411 
	C188.682068,109.460609 199.129318,100.599800 209.576553,91.738998 
	C209.424530,91.176094 209.272507,90.613190 209.120499,90.050285 
	C179.972748,87.441330 150.824997,84.832367 121.677246,82.223404 
	C150.710861,79.809624 179.747299,79.606216 209.110352,78.526871 
	C198.572433,71.739288 188.034500,64.951698 177.496582,58.164116 
	C177.734619,57.690990 177.972672,57.217861 178.210724,56.744736 
	C188.550232,61.746681 198.889740,66.748627 209.229248,71.750572 
	C209.562241,71.390106 209.895218,71.029640 210.228210,70.669182 
	C199.572342,52.869278 187.329910,36.056683 176.144714,18.586178 
	C176.548157,18.269623 176.951599,17.953070 177.355042,17.636515 
	C191.702744,34.429886 206.050446,51.223255 220.821396,68.512016 
	C224.189774,59.764748 221.403656,51.106750 224.105804,43.104126 
	C226.341553,50.384205 225.301636,58.198467 227.578690,65.369743 
	C228.093964,65.463287 228.609222,65.556831 229.124496,65.650375 
	C237.048477,52.520828 244.972473,39.391277 252.896454,26.261724 
	C253.392090,26.493143 253.887741,26.724564 254.383377,26.955984 
	C248.345871,42.414379 242.308365,57.872772 236.270859,73.331169 
	C236.596832,73.704315 236.922806,74.077461 237.248795,74.450607 
	C248.278000,68.644058 259.307190,62.837498 270.336395,57.030945 
	C270.626831,57.455513 270.917267,57.880085 271.207733,58.304657 
	C261.825714,64.669296 252.443710,71.033943 243.061722,77.398582 
	C243.181335,77.863655 243.300949,78.328728 243.420563,78.793800 
	C268.973969,78.793800 294.527405,78.793800 320.540405,78.896896 
	C321.000000,79.444443 321.000000,79.888893 321.000000,80.666672 
z"/>
<path fill="#000000" opacity="1.000000" stroke="none" 
	d="
M27.787580,101.196533 
	C22.561296,95.337639 17.614775,89.703850 12.567513,84.161797 
	C10.589116,81.989464 10.054666,80.234253 12.421582,77.799988 
	C31.466246,58.213425 50.408260,38.527073 69.396446,18.885521 
	C69.942970,18.320194 70.653580,17.913492 71.287674,17.432825 
	C71.617096,17.719877 71.946518,18.006927 72.275940,18.293980 
	C58.141762,35.624794 44.007584,52.955608 29.873407,70.286423 
	C30.086161,70.644730 30.298914,71.003036 30.511665,71.361343 
	C42.191299,66.124153 53.870930,60.886959 65.550560,55.649769 
	C65.786934,56.125965 66.023308,56.602158 66.259682,57.078354 
	C54.277420,63.986458 42.295158,70.894562 30.312899,77.802666 
	C30.358515,78.308861 30.404129,78.815056 30.449743,79.321243 
	C50.888054,79.941765 71.326363,80.562286 91.764671,81.182808 
	C91.759102,81.749237 91.753525,82.315666 91.747955,82.882088 
	C72.190338,83.798042 52.632725,84.713997 33.075108,85.629951 
	C32.974869,85.969887 32.874630,86.309822 32.774391,86.649757 
	C45.292599,93.302589 57.810806,99.955414 70.329010,106.608238 
	C70.105064,107.090607 69.881119,107.572983 69.657166,108.055351 
	C56.591423,102.339996 43.525681,96.624634 30.459936,90.909279 
	C30.230850,91.147713 30.001764,91.386154 29.772676,91.624588 
	C65.731956,134.591949 101.691238,177.559326 137.650513,220.526688 
	C137.215195,220.905609 136.779861,221.284531 136.344543,221.663452 
	C100.238708,181.595078 64.132874,141.526703 27.787580,101.196533 
z"/>
<path fill="#000000" opacity="1.000000" stroke="none" 
	d="
M271.521667,36.533195 
	C272.814819,39.907593 273.971100,42.924667 275.257385,46.281086 
	C272.417358,45.960087 272.137177,44.070549 271.324707,42.740166 
	C267.071564,35.775745 262.748413,28.849600 258.696136,21.769043 
	C256.919708,18.665098 255.202515,17.970373 251.939529,19.804060 
	C245.556183,23.391314 238.962738,26.606207 232.436661,29.936808 
	C231.156326,30.590237 229.986633,31.687990 227.254440,31.064020 
	C233.749039,25.870043 239.709778,21.103014 246.708435,15.505920 
	C192.571091,13.278182 139.651428,11.100551 85.933693,8.890079 
	C87.815781,7.336589 89.418678,7.699396 90.845596,7.699693 
	C146.492767,7.711263 202.139923,7.758815 257.787079,7.755885 
	C260.597351,7.755736 262.941467,8.345894 264.967590,10.472639 
	C281.973480,28.323170 299.038177,46.117706 316.064331,63.948982 
	C316.685364,64.599380 317.735382,65.175972 316.848724,67.128471 
	C299.967377,51.598778 283.272186,36.240326 266.576996,20.881872 
	C266.276733,21.042671 265.976501,21.203470 265.676239,21.364269 
	C267.579071,26.301472 269.481934,31.238672 271.521667,36.533195 
z"/>
<path fill="#000000" opacity="1.000000" stroke="none" 
	d="
M146.507355,42.523777 
	C135.352859,55.495121 124.439842,68.211166 112.533676,82.084442 
	C102.374191,59.524868 92.658905,37.951656 82.943626,16.378448 
	C83.431213,16.123650 83.918800,15.868853 84.406395,15.614055 
	C94.153755,33.190090 103.901115,50.766129 113.978676,68.937561 
	C126.829742,58.583359 137.794952,46.877098 150.903259,35.442173 
	C150.213379,39.377941 148.039917,40.544415 146.507355,42.523777 
z"/>
</svg>