<svg version="1.1" id="Layer_1" xmlns="http://www.w3.org/2000/svg" xmlns:xlink="http://www.w3.org/1999/xlink" x="0px" y="0px"
	 width="100%" viewBox="0 0 208 256" enable-background="new 0 0 208 256" xml:space="preserve">
<path fill="#000000" opacity="1.000000" stroke="none" 
	d="
M123.468658,257.000000 
	C114.862358,251.513443 107.023094,245.813690 101.164062,237.627121 
	C74.650360,200.580704 96.466019,148.856537 141.425522,141.470871 
	C164.915543,137.612091 196.820511,149.336731 208.862946,181.681915 
	C209.000000,195.354233 209.000000,208.708450 208.771301,222.782364 
	C205.273865,230.753128 201.353256,237.555496 195.998337,243.543732 
	C191.083099,249.040283 184.594406,252.429626 179.000000,257.000000 
	C160.645767,257.000000 142.291550,257.000000 123.468658,257.000000 
M146.324554,170.790344 
	C145.838821,170.906387 145.356842,171.042053 144.866821,171.135605 
	C129.773041,174.017471 119.098038,187.109436 119.353706,202.430634 
	C119.613037,217.970825 131.494659,231.208725 147.262741,233.525452 
	C161.341400,235.593964 176.581955,225.795547 180.996002,211.667801 
	C182.994080,205.272675 183.780075,198.805771 180.463394,191.960571 
	C175.019623,198.829498 169.996994,205.418137 164.698563,211.776962 
	C160.046783,217.359756 153.849747,219.579575 146.791275,217.914185 
	C140.144730,216.345963 136.495956,211.508255 135.055573,204.978043 
	C133.590607,198.336487 137.176041,191.257080 144.549698,186.681915 
	C151.269699,182.512299 158.141083,178.586685 165.430435,174.266235 
	C159.332260,170.589783 153.384064,169.899399 146.324554,170.790344 
M154.172348,253.648849 
	C183.679794,251.812271 202.727859,225.306931 201.735550,207.148514 
	C193.631500,205.073715 192.534546,205.652206 190.423294,213.114304 
	C185.449982,230.692062 168.726746,243.353729 150.686951,243.199860 
	C132.552780,243.045197 116.572357,230.747040 111.572334,213.098160 
	C109.468712,205.672882 108.297791,205.057053 100.258636,207.147781 
	C99.200081,226.161179 120.464790,255.312119 154.172348,253.648849 
M129.274811,154.741776 
	C112.303810,163.461975 102.146072,176.950638 99.583656,196.050629 
	C108.229858,198.244156 109.327530,197.662857 111.571396,190.323944 
	C116.147003,175.358734 126.362923,166.241531 141.139343,161.880844 
	C142.091675,161.599792 143.160080,161.628433 144.049713,161.232590 
	C148.304138,159.339600 146.130890,155.829773 145.910492,152.936417 
	C145.669525,149.772934 143.405853,150.722000 141.407501,151.027359 
	C137.425461,151.635773 133.644028,152.844009 129.274811,154.741776 
M169.285568,164.975647 
	C173.449677,167.695206 177.384888,170.161194 183.011429,168.501099 
	C186.656845,167.425537 190.414795,171.495850 188.998917,174.930664 
	C186.693390,180.523727 188.537460,185.139648 190.246155,190.205750 
	C192.756042,197.647354 193.508316,198.253754 201.568817,196.249344 
	C202.672348,175.091019 176.639709,149.021606 156.409485,151.026199 
	C154.920441,159.623840 155.265823,160.193665 162.980728,162.582764 
	C164.882507,163.171677 166.720139,163.967789 169.285568,164.975647 
M171.288208,187.853363 
	C172.674789,185.525528 174.921783,183.699234 175.726791,180.474915 
	C166.053116,184.753937 157.255173,189.661331 148.856750,195.281189 
	C145.983154,197.204102 143.740540,199.665848 144.482117,203.525772 
	C144.954941,205.986877 146.477432,207.777420 148.898865,208.455078 
	C152.515472,209.467194 155.241501,208.001404 157.638260,205.228302 
	C162.307175,199.826370 166.751251,194.260254 171.288208,187.853363 
z"/>
<path fill="#000000" opacity="1.000000" stroke="none" 
	d="
M67.183998,24.611534 
	C64.996002,21.298611 64.306877,18.263874 66.482185,15.004882 
	C68.939728,11.323055 72.642990,11.097210 76.298340,11.843045 
	C96.932167,16.053154 113.758789,26.239126 125.498871,44.044708 
	C134.797989,58.148220 139.028473,73.910667 140.380951,90.584900 
	C140.567780,92.888390 141.074326,95.165932 141.514923,97.979576 
	C146.972549,95.054573 149.452957,90.288719 151.685471,85.362961 
	C152.506104,83.552376 153.124557,81.635345 153.677216,79.721245 
	C154.775696,75.916664 156.667023,72.987915 161.047791,72.715691 
	C165.347595,72.448494 167.833420,74.908592 169.442642,78.545967 
	C177.201889,96.084480 183.749268,114.024132 187.350388,132.931107 
	C187.847458,135.540894 188.185028,138.181976 188.716537,140.784042 
	C189.356476,143.916870 188.209030,146.331497 185.227386,146.968964 
	C182.121109,147.633102 180.241364,145.575882 179.683289,142.557739 
	C177.321091,129.782776 174.291885,117.184853 169.856766,104.954163 
	C167.654678,98.881516 165.649536,92.722816 162.160248,86.347382 
	C159.576660,91.040535 157.657944,95.417404 154.701019,99.171761 
	C152.308624,102.209351 149.532867,104.802055 146.614761,107.295860 
	C143.792084,109.708145 140.679520,111.309006 137.020203,109.799789 
	C133.184677,108.217918 131.873444,104.795097 131.737732,100.878952 
	C131.361618,90.026604 130.006393,79.303062 126.671387,68.954483 
	C119.297211,46.072350 104.883430,29.994005 81.371864,22.938089 
	C80.738083,22.747889 80.092728,22.573557 79.440140,22.478920 
	C79.145287,22.436159 78.819412,22.607388 78.499771,22.683395 
	C77.751472,23.755323 78.576790,24.556473 78.984306,25.404566 
	C92.540833,53.617722 85.391747,79.835106 59.215683,97.038788 
	C48.567039,104.037384 38.289257,111.344734 31.292059,122.315498 
	C14.997006,147.864151 15.340829,174.143005 28.492243,200.630386 
	C36.372593,216.501694 48.680870,228.189407 64.802879,235.722076 
	C65.805725,236.190613 66.792671,237.005493 68.336388,236.383667 
	C66.441658,229.246338 64.386467,222.140503 63.552811,214.700623 
	C60.897236,191.001266 69.205887,170.918900 83.411713,152.724869 
	C86.683899,148.534058 90.319069,144.594421 94.065895,140.815521 
	C97.775124,137.074570 101.626854,137.106812 105.542267,140.593796 
	C107.402130,142.250137 109.109589,144.098953 110.737961,145.988251 
	C112.592964,148.140518 113.024437,150.546387 110.731972,152.637177 
	C108.537178,154.638870 106.182632,154.323334 104.015335,152.388412 
	C102.782257,151.287552 101.566078,150.167755 100.078377,148.816833 
	C94.125435,153.678116 89.599655,159.594177 85.511688,165.801086 
	C71.009651,187.820038 68.018883,211.050919 78.717216,235.546417 
	C80.310516,239.194504 80.785545,242.661148 77.764641,245.709824 
	C74.835701,248.665665 71.358589,248.739609 67.606926,247.261490 
	C35.531879,234.624268 16.531132,210.788971 10.988556,177.323395 
	C4.902635,140.577164 18.777283,111.819992 50.235462,91.757881 
	C58.339149,86.589844 65.852852,80.803368 70.660187,72.331009 
	C79.990013,55.888329 77.543480,40.102421 67.183998,24.611534 
z"/>
</svg>