<svg version="1.1" id="Layer_1" xmlns="http://www.w3.org/2000/svg" xmlns:xlink="http://www.w3.org/1999/xlink" x="0px" y="0px"
	 width="100%" viewBox="0 0 240 256" enable-background="new 0 0 240 256" xml:space="preserve">
<path fill="#000000" opacity="1.000000" stroke="none" 
	d="
M101.468658,257.000000 
	C93.368507,254.228439 85.388359,252.370056 78.186668,248.471817 
	C56.875679,236.936264 38.934769,222.049179 30.166332,198.542419 
	C23.835657,181.570877 27.982168,168.259506 42.611629,156.595947 
	C56.750065,145.323868 70.872986,144.478592 85.921043,153.930374 
	C97.786461,161.383148 109.944519,168.242401 123.649521,171.822281 
	C131.474152,173.866165 139.406342,174.040939 147.420883,173.316132 
	C152.945175,172.816559 158.432983,172.845840 162.962799,176.868515 
	C166.484573,179.996017 166.666183,184.493134 167.819595,189.327408 
	C174.386765,185.927139 179.088760,180.850983 183.591705,175.652283 
	C188.626480,169.839569 192.468521,163.190643 196.049820,156.403641 
	C197.684158,153.306381 199.379471,150.249924 201.803589,147.673538 
	C205.549011,143.692810 209.752518,140.987656 215.510895,143.027344 
	C221.283646,145.072144 224.041565,149.803268 224.077927,155.339859 
	C224.113876,160.811661 224.673889,165.590515 227.013916,170.799606 
	C230.484665,178.525833 226.936249,186.168030 222.934372,193.014755 
	C220.955597,196.400208 219.690735,199.402237 221.425049,203.210449 
	C222.827057,206.288940 221.364548,209.084366 219.974335,211.749573 
	C212.634903,225.820221 201.165100,235.710709 187.619705,243.440125 
	C175.781982,250.195084 162.887894,253.951797 149.307037,256.791565 
	C133.312439,257.000000 117.624878,257.000000 101.468658,257.000000 
M164.708893,226.384644 
	C161.454178,227.644043 158.255676,229.088089 154.926132,230.101669 
	C152.467270,230.850189 150.195679,230.043350 149.143433,227.475662 
	C148.066284,224.847260 149.341919,222.976120 151.598938,221.670914 
	C152.458786,221.173645 153.391342,220.788788 154.318604,220.423355 
	C178.041428,211.074219 195.768158,194.826508 208.635406,173.056549 
	C211.427063,168.333389 213.978622,163.471649 215.157364,157.992538 
	C215.721802,155.368896 215.177490,153.038818 213.037384,151.890762 
	C210.633942,150.601410 208.980713,152.888153 207.773972,154.563126 
	C206.131805,156.842499 204.858200,159.400925 203.545593,161.902161 
	C188.223770,191.098541 162.029495,214.652374 120.747185,206.380753 
	C111.516083,204.531143 102.744934,201.623993 94.789856,196.515442 
	C92.382072,194.969208 91.400093,192.709442 92.744995,190.079269 
	C94.155487,187.320816 96.600235,187.259354 99.191025,188.374863 
	C99.801590,188.637741 100.396141,188.948959 100.968475,189.287903 
	C112.837837,196.316711 125.974274,198.187210 139.404068,198.177124 
	C145.301804,198.172684 150.773544,195.816406 155.417267,191.946259 
	C157.588760,190.136505 158.256546,187.773544 157.394119,185.202606 
	C156.577209,182.767380 154.345123,182.384933 152.064804,182.388718 
	C149.232254,182.393402 146.349808,182.054886 143.575668,182.459412 
	C130.701996,184.336685 118.815033,180.804855 107.224358,175.929062 
	C97.534897,171.853058 88.583473,166.343643 79.538467,161.011566 
	C63.606304,151.619476 40.590466,162.418381 37.208294,180.661621 
	C35.553459,189.587692 38.422092,197.650299 42.936108,204.835068 
	C55.540192,224.896454 73.279999,239.138092 96.046471,245.585495 
	C127.874138,254.598999 158.401108,249.371109 187.040039,233.358078 
	C196.666122,227.975815 204.674866,220.463425 210.626175,209.774307 
	C205.837021,214.009354 201.851944,217.705429 197.680984,221.178268 
	C192.431351,225.549255 187.031219,229.762222 180.799088,232.681717 
	C178.366623,233.821213 175.668823,233.887573 174.164230,231.257584 
	C172.631027,228.577530 173.456284,226.103561 176.130386,224.398529 
	C176.972534,223.861603 177.854370,223.386795 178.695053,222.847687 
	C191.559952,214.597443 203.060699,204.826920 212.155029,192.445068 
	C215.576569,187.786652 218.099350,182.698242 218.192581,176.630676 
	C205.643204,198.585098 187.974121,214.957397 164.708893,226.384644 
z"/>
<path fill="#000000" opacity="1.000000" stroke="none" 
	d="
M204.815491,115.075729 
	C192.568542,120.501442 181.227203,119.357979 170.273026,112.459152 
	C156.707657,103.915833 142.715729,96.279602 126.799965,92.940552 
	C121.018402,91.727615 115.176704,92.339478 109.373627,92.418152 
	C93.109444,92.638657 92.300568,92.154518 87.678322,76.552048 
	C81.098419,79.934502 76.349007,85.225571 71.786324,90.637108 
	C67.485603,95.737946 63.857494,101.326714 60.955685,107.370789 
	C59.077854,111.282066 56.835472,114.978966 54.026962,118.317558 
	C49.572113,123.613235 44.016277,125.513268 39.103535,123.363869 
	C34.046223,121.151230 30.162083,114.450455 31.187975,108.481316 
	C31.925255,104.191452 31.745745,100.769913 28.982111,96.956367 
	C26.024210,92.874748 26.995600,87.644676 28.221033,82.928848 
	C28.968147,80.053741 30.083241,77.193932 31.520489,74.597015 
	C33.768600,70.534988 35.959644,67.034935 33.952133,61.759602 
	C32.187622,57.122818 35.563564,52.806740 38.147972,48.923435 
	C48.787941,32.935913 63.579525,22.153658 81.534149,15.989383 
	C109.026207,6.550668 137.092621,3.507179 165.207703,12.764230 
	C188.607758,20.468830 207.338593,35.112175 220.078140,56.206425 
	C234.878036,80.712173 229.555984,99.918350 204.815491,115.075729 
M218.680450,77.884850 
	C217.536285,69.986198 214.808197,62.523853 209.906662,56.374134 
	C197.120758,40.332256 181.716797,27.142704 161.738068,21.389000 
	C131.022095,12.543064 101.060074,16.209280 72.648666,30.647577 
	C62.261700,35.926094 52.895721,42.924381 47.145302,53.678886 
	C51.462845,50.416786 55.528259,46.853298 59.717743,43.442192 
	C64.109329,39.866528 68.618095,36.432831 73.658470,33.783493 
	C76.617348,32.228237 79.595314,31.827497 81.473763,35.160748 
	C83.342415,38.476612 80.816948,40.351837 78.443672,42.055618 
	C77.904274,42.442852 77.309906,42.754219 76.736908,43.093857 
	C63.819050,50.750732 53.150833,60.992001 43.641056,72.447556 
	C39.631268,77.277786 37.038864,82.955338 36.639679,89.724274 
	C37.256218,89.324913 37.597713,89.214912 37.760014,88.980713 
	C38.898109,87.338470 40.063290,85.709648 41.102444,84.004990 
	C54.385109,62.215664 73.046387,46.766712 96.510857,36.988434 
	C97.879372,36.418133 99.342247,35.950481 100.804039,35.754478 
	C103.539017,35.387753 105.858810,36.186951 106.698586,39.112194 
	C107.490509,41.870739 105.855400,43.529411 103.613731,44.656059 
	C101.384666,45.776371 99.092697,46.773674 96.813469,47.791679 
	C72.355080,58.715885 54.778015,76.654076 43.098148,100.569427 
	C41.642994,103.548950 40.224739,106.610794 40.397015,110.069191 
	C40.483593,111.807182 41.063511,113.478561 42.716423,114.219910 
	C44.593151,115.061630 45.870937,113.598068 46.985577,112.408798 
	C49.874798,109.326088 51.382042,105.378677 53.463562,101.783417 
	C69.402428,74.253403 90.402184,55.213356 125.103310,58.644852 
	C137.549545,59.875622 149.300430,62.914082 160.090698,69.328300 
	C162.658051,70.854446 164.263306,73.033806 162.706314,75.949623 
	C161.153214,78.858139 158.399780,78.893959 155.776306,77.433365 
	C144.483002,71.145905 132.403168,68.385117 119.488525,67.899124 
	C113.126991,67.659721 107.708801,69.240280 102.395370,72.102127 
	C99.143379,73.853676 97.464539,76.657310 98.357193,80.404785 
	C99.261551,84.201447 102.503960,83.727859 105.276344,83.608940 
	C113.742920,83.245750 122.198540,82.506943 130.614700,84.306625 
	C146.861984,87.780899 161.111435,95.765831 174.971329,104.385124 
	C184.005356,110.003273 193.159439,110.667648 201.809265,105.288025 
	C211.355103,99.351112 220.342834,92.213287 218.680450,77.884850 
z"/>
<path fill="#000000" opacity="1.000000" stroke="none" 
	d="
M101.116928,136.476227 
	C96.975288,121.123192 110.220009,110.340485 119.782799,113.018997 
	C127.559799,115.197319 134.118927,114.204765 141.678497,112.646141 
	C153.444550,110.220245 163.689560,123.206146 160.590790,134.936859 
	C158.995224,140.977020 155.522415,145.720917 150.955048,149.774445 
	C145.829834,154.323074 139.981659,157.865372 134.266693,161.586029 
	C132.660889,162.631470 130.698135,163.222336 129.044205,162.223785 
	C118.107079,155.620804 106.411537,149.797852 101.116928,136.476227 
M147.031921,122.496750 
	C142.927597,121.037498 139.548264,122.118225 136.760117,125.382942 
	C132.156357,130.773605 130.685654,130.826431 125.686409,125.839607 
	C121.526672,121.690186 116.887489,120.924019 113.206566,123.778526 
	C108.916397,127.105469 108.392883,131.755585 111.763847,137.089005 
	C116.043495,143.860107 122.833351,147.511780 129.523392,151.274841 
	C130.623917,151.893860 131.817505,151.907104 132.873474,151.271423 
	C139.441620,147.317551 146.220230,143.561493 150.324585,136.701172 
	C153.757385,130.963379 152.993332,127.363625 147.031921,122.496750 
z"/>
</svg>