<svg version="1.1" id="Layer_1" xmlns="http://www.w3.org/2000/svg" xmlns:xlink="http://www.w3.org/1999/xlink" x="0px" y="0px"
	 width="100%" viewBox="0 0 256 256" enable-background="new 0 0 256 256" xml:space="preserve">
<path fill="#000000" opacity="1.000000" stroke="none" 
	d="
M95.466858,257.000000 
	C89.271515,254.374176 83.381546,252.049072 77.840721,249.073776 
	C41.606133,229.616470 18.718599,200.040253 11.654267,159.259720 
	C4.422295,117.511429 15.380747,80.732269 44.495773,49.873417 
	C63.840607,29.369936 87.726418,16.413494 115.751518,12.792694 
	C167.056824,6.164130 208.540100,23.696869 239.324036,65.553841 
	C247.291229,76.386818 252.084854,88.860405 256.814392,101.701134 
	C257.000000,108.354401 257.000000,114.708794 257.000000,121.531601 
	C254.603989,117.345467 254.860092,112.059288 253.435272,107.152359 
	C239.763016,60.066971 209.415665,29.966236 161.689133,18.503653 
	C127.099739,10.196247 94.843979,17.208208 65.764488,37.426842 
	C38.837078,56.149162 21.952400,81.975548 16.006329,114.232361 
	C8.842724,153.094162 18.518667,187.747467 44.392101,217.736008 
	C62.005047,238.150253 84.588058,250.130280 110.736687,256.724548 
	C105.977905,257.000000 100.955818,257.000000 95.466858,257.000000 
z"/>
<path fill="#000000" opacity="1.000000" stroke="none" 
	d="
M257.000000,172.531464 
	C252.444214,182.573395 249.222931,192.720276 243.652893,201.878113 
	C228.385712,226.979187 206.846893,244.386826 179.710739,255.163254 
	C178.637466,255.589478 177.595795,256.095306 176.269699,256.782043 
	C170.977905,257.000000 165.955811,257.000000 160.466858,257.000000 
	C165.100830,254.123947 170.999573,253.709335 176.384766,251.617447 
	C221.458694,234.108597 247.765244,201.436523 255.818665,153.879501 
	C255.898788,153.406372 256.195343,152.969894 256.695435,152.258148 
	C257.000000,158.687637 257.000000,165.375290 257.000000,172.531464 
z"/>
<path fill="#000000" opacity="1.000000" stroke="none" 
	d="
M119.090469,214.793900 
	C134.931503,215.894363 149.149429,212.392807 162.936874,205.500656 
	C177.528717,198.206406 190.603439,188.868179 203.185257,178.686020 
	C207.157181,175.471634 207.973831,172.085480 205.446426,169.328979 
	C202.371567,165.975433 199.215469,167.131393 196.158859,169.497116 
	C196.027069,169.599121 195.889404,169.695328 195.768188,169.808884 
	C182.332870,182.394653 166.168488,189.846481 148.731247,194.986145 
	C141.501419,197.117172 134.190140,196.438263 126.950394,195.742096 
	C123.164955,195.378067 121.435265,192.188828 121.750366,188.375946 
	C122.096237,184.190720 124.986076,182.309738 128.743973,181.763077 
	C136.631989,180.615662 144.549042,179.668427 152.452286,178.624786 
	C155.248215,178.255569 157.685013,177.253708 158.543594,174.267532 
	C159.254761,171.794083 158.517776,169.672958 156.467484,168.043472 
	C155.063568,166.927734 153.582687,166.796143 151.794083,167.070557 
	C139.102768,169.017792 126.326790,170.043503 113.496010,169.285507 
	C106.699318,168.884003 100.000191,167.870010 93.137650,169.147781 
	C87.932816,170.116882 83.113564,171.656601 79.009209,174.971130 
	C75.041771,178.175095 70.593002,179.421173 65.558815,179.356323 
	C56.727013,179.242554 47.892445,179.358215 39.059498,179.303589 
	C37.501225,179.293961 35.219112,179.674637 35.228115,177.290009 
	C35.236549,175.056320 37.492184,175.102188 39.063370,175.082169 
	C47.395355,174.976074 55.730255,174.905289 64.061600,175.015274 
	C69.060394,175.081268 73.380707,173.910553 77.551041,170.858749 
	C87.980850,163.226318 99.953056,163.786880 112.040230,165.059113 
	C122.521965,166.162338 132.951233,164.933167 143.341003,163.544693 
	C145.561813,163.247910 145.821793,161.453323 145.611328,159.745239 
	C144.803085,153.186005 142.230759,147.183182 138.766113,141.696350 
	C136.646576,138.339706 130.536301,138.000961 127.202431,140.320801 
	C125.424454,141.557999 123.651039,142.804337 121.833641,143.981842 
	C105.740463,154.408722 91.151001,148.967911 79.603661,136.242065 
	C77.359955,133.769394 78.649910,132.099152 80.633804,130.422592 
	C97.127205,116.484207 111.616058,116.576515 127.245071,131.082428 
	C129.192078,132.889542 131.051559,134.122635 134.871979,134.463654 
	C131.358078,127.399826 127.161690,121.977386 121.370621,117.798859 
	C120.202332,116.955894 118.800018,117.747101 117.502632,118.019325 
	C96.282768,122.471893 83.690781,110.621040 79.049652,91.356773 
	C78.339859,88.410561 79.874344,87.054512 82.645088,86.574600 
	C104.603577,82.771202 116.188324,88.541809 122.842636,109.695999 
	C123.628563,112.194481 124.732239,114.115341 126.598068,115.921684 
	C133.124054,122.239563 138.114456,129.701294 142.217209,137.777496 
	C143.024902,139.367447 143.894684,140.925858 145.579681,142.351151 
	C145.579681,134.103607 145.603821,125.855934 145.559525,117.608627 
	C145.550552,115.939026 144.088058,115.085876 143.114655,113.973633 
	C128.101425,96.819000 131.472046,81.906059 144.407669,67.225945 
	C146.675720,64.652046 148.643921,64.830544 151.094940,67.221992 
	C165.119980,80.906105 166.238464,97.456169 153.696930,112.698509 
	C151.175461,115.762962 150.082733,118.745552 150.139160,122.635078 
	C150.309616,134.386856 150.200699,146.142685 150.664520,157.979324 
	C153.724304,150.922775 158.574844,145.148056 159.266495,136.683777 
	C160.919388,116.455894 173.383194,109.432655 192.589828,108.154335 
	C194.992111,107.994446 196.351624,109.049873 196.366440,111.634972 
	C196.484329,132.211426 188.641281,144.270615 167.937759,147.016724 
	C163.087006,147.660126 160.277557,149.264297 158.395477,153.394272 
	C157.162888,156.099075 155.808197,158.748245 154.653412,161.123611 
	C155.416275,163.091537 157.045090,162.922531 158.100204,163.655212 
	C161.847870,166.257721 163.867462,169.745956 163.182724,174.304276 
	C162.521545,178.705902 159.708374,181.541855 155.355637,182.311157 
	C151.386536,183.012665 149.234192,184.640808 150.529770,189.680023 
	C159.051544,186.164139 168.383713,184.886505 176.047806,179.442841 
	C182.019379,175.201370 187.632538,170.455765 193.412140,165.943359 
	C197.586807,162.684021 201.998642,161.610031 206.795456,164.603302 
	C212.165237,167.954071 213.308258,175.839478 208.264221,180.123993 
	C188.847321,196.617218 168.179825,211.189529 142.920273,217.384842 
	C125.325920,221.700150 107.735153,219.367203 90.571190,214.996170 
	C79.772736,212.246201 69.067284,210.844025 58.022324,211.316284 
	C56.859543,211.366013 55.688927,211.311325 54.525440,211.244354 
	C53.288124,211.173141 52.117569,210.806610 52.004482,209.358536 
	C51.869831,207.634415 53.142292,206.918945 54.550114,206.941895 
	C63.172249,207.082489 71.855057,205.714279 80.391151,208.093445 
	C92.903839,211.580948 105.531494,214.462448 119.090469,214.793900 
M139.850281,184.610550 
	C136.203018,185.787766 132.238174,184.895782 128.625320,186.352829 
	C127.293373,186.889999 126.272629,187.625992 126.314377,189.189606 
	C126.350471,190.541275 127.235199,191.459747 128.462097,191.523590 
	C134.465256,191.835968 140.483292,192.150208 146.577469,191.347733 
	C144.918518,184.463699 144.918518,184.463699 139.850281,184.610550 
z"/>
<path fill="#000000" opacity="1.000000" stroke="none" 
	d="
M221.807205,76.078102 
	C217.058228,79.772354 212.538605,83.287323 206.741867,84.183182 
	C204.783798,84.485794 201.932236,85.299019 201.103622,82.548225 
	C200.268555,79.775978 202.949570,78.920792 204.907089,78.170738 
	C209.877640,76.266220 214.907166,74.510460 219.949692,72.803276 
	C220.969910,72.457878 222.351685,71.981628 223.093567,73.310371 
	C223.701050,74.398361 222.729462,75.131622 221.807205,76.078102 
z"/>
<path fill="#000000" opacity="1.000000" stroke="none" 
	d="
M57.575329,73.481308 
	C62.149349,75.095169 66.402534,76.515106 70.592850,78.101151 
	C72.538696,78.837677 75.345421,79.405937 74.817505,82.165810 
	C74.195038,85.419930 71.100357,84.360359 68.991158,84.238686 
	C64.053673,83.953842 55.305450,78.213821 52.257771,73.564957 
	C53.846397,71.791481 55.555565,72.874153 57.575329,73.481308 
z"/>
<path fill="#000000" opacity="1.000000" stroke="none" 
	d="
M212.577118,134.103851 
	C209.210983,132.892944 203.961960,132.783127 204.864731,128.966125 
	C205.997818,124.175293 210.789566,127.242676 213.754456,127.920883 
	C217.409653,128.757019 221.782806,128.170868 224.781281,131.966492 
	C221.188782,135.447983 216.944717,134.086334 212.577118,134.103851 
z"/>
<path fill="#000000" opacity="1.000000" stroke="none" 
	d="
M62.012360,127.729065 
	C65.404533,127.512169 69.865974,124.306129 70.784706,128.976089 
	C71.583183,133.034851 66.470642,133.077911 63.478737,133.884750 
	C58.769733,135.154663 54.838623,134.415482 51.067661,131.938721 
	C53.719215,128.194504 58.226116,129.341110 62.012360,127.729065 
z"/>
<path fill="#000000" opacity="1.000000" stroke="none" 
	d="
M67.465851,106.682327 
	C66.085472,108.780731 64.277565,108.653450 62.427742,108.506104 
	C58.131275,108.163910 51.011909,105.707939 48.297543,103.584892 
	C52.899220,99.676788 64.895081,101.390053 67.465851,106.682327 
z"/>
<path fill="#000000" opacity="1.000000" stroke="none" 
	d="
M63.016182,152.233109 
	C66.940376,149.111893 70.849762,146.685623 75.293831,145.238113 
	C76.702209,144.779388 78.319138,144.195404 79.129318,146.074295 
	C79.746284,147.505081 78.897911,148.785599 77.733963,149.445145 
	C73.723015,151.717987 69.751335,154.155609 65.498322,155.869400 
	C63.013420,156.870712 61.101173,155.751480 63.016182,152.233109 
z"/>
<path fill="#000000" opacity="1.000000" stroke="none" 
	d="
M200.896088,151.210556 
	C200.416397,150.972641 200.257187,150.911331 200.129929,150.809921 
	C198.442902,149.465485 195.176590,148.553146 196.790649,145.795441 
	C198.118744,143.526321 200.745712,145.267105 202.620560,146.066132 
	C206.112701,147.554428 209.465149,149.360229 212.352112,151.882660 
	C213.229187,152.648987 214.034775,153.626465 213.428192,154.891098 
	C212.707581,156.393448 211.290298,156.466400 210.030197,155.871582 
	C207.052292,154.465866 204.158966,152.880966 200.896088,151.210556 
z"/>
<path fill="#000000" opacity="1.000000" stroke="none" 
	d="
M218.984711,107.341667 
	C216.039398,108.536308 213.381409,108.454956 210.711517,108.260994 
	C209.629440,108.182373 208.762222,107.697662 208.357407,106.692986 
	C207.922150,105.612671 208.524582,104.811752 209.291748,104.084633 
	C212.268860,101.262939 223.768036,100.775253 227.757950,103.437157 
	C225.723511,106.442284 222.125168,105.932907 218.984711,107.341667 
z"/>
</svg>